<svg width="162" height="142" viewBox="0 0 162 142" fill="none" xmlns="http://www.w3.org/2000/svg">
<path d="M61.8923 92.3L82.3209 104.696L102.326 92.3" stroke="#0891B2" stroke-width="2.22872" stroke-miterlimit="10"/>
<path d="M114.58 74.6335L113.741 50.6605L92.4812 40.5952" stroke="#0891B2" stroke-width="2.22872" stroke-miterlimit="10"/>
<path d="M71.2634 37.4963L50.8098 49.842L52.3384 73.4223" stroke="#0891B2" stroke-width="2.22872" stroke-miterlimit="10"/>
<path d="M54.4154 22.9707L29.4923 38.006V98.9825L40.2923 105.665L61.4769 92.6259L81 80.606L108.415 95.6413" stroke="#EBEBEB" stroke-width="2.22872" stroke-miterlimit="10"/>
<path d="M46.9385 76.4294L71.0308 62.2294V15.4529L82.1049 8.72876L133.338 38.0058V67.0156" stroke="#EBEBEB" stroke-width="2.22872" stroke-miterlimit="10"/>
<path d="M92.6308 34.6648V61.3942L133.338 85.5008V98.498L82.1049 128.869L56.9077 114.018" stroke="#EBEBEB" stroke-width="2.22872" stroke-miterlimit="10"/>
<path d="M90.8684 60.241L86.369 60.2005L84.0848 64.0968L86.3001 68.0349L90.7996 68.0755L93.0837 64.1778L90.8684 60.241Z" stroke="white" stroke-width="1.40622" stroke-miterlimit="10"/>
<path d="M90.8614 68.2052L86.3619 68.1646L84.0779 72.0608L86.2933 75.999L90.7928 76.0397L93.0768 72.1422L90.8614 68.2052Z" stroke="white" stroke-width="1.40622" stroke-miterlimit="10"/>
<path d="M84.1855 56.3577L79.686 56.3169L77.4021 60.2131L79.6177 64.1514L84.1172 64.1922L86.401 60.2948L84.1855 56.3577Z" stroke="white" stroke-width="1.40622" stroke-miterlimit="10"/>
<path d="M84.0515 64.3215L79.5521 64.2808L77.2681 68.177L79.4835 72.1153L83.9829 72.1559L86.267 68.2584L84.0515 64.3215Z" stroke="white" stroke-width="1.40622" stroke-miterlimit="10"/>
<path d="M83.9816 72.2216L79.4822 72.1809L77.1981 76.0772L79.4136 80.0154L83.913 80.0561L86.197 76.1585L83.9816 72.2216Z" stroke="white" stroke-width="1.40622" stroke-miterlimit="10"/>
<path d="M77.3056 60.3744L72.8061 60.3338L70.5221 64.23L72.7375 68.1682L77.237 68.2089L79.521 64.3114L77.3056 60.3744Z" stroke="white" stroke-width="1.40622" stroke-miterlimit="10"/>
<path d="M77.1718 68.3378L72.6723 68.2971L70.3883 72.1934L72.6037 76.1316L77.1032 76.1723L79.3872 72.2748L77.1718 68.3378Z" stroke="white" stroke-width="1.40622" stroke-miterlimit="10"/>
<path d="M136.839 70.7725C136.839 72.8089 135.188 74.46 133.151 74.46C131.114 74.46 129.462 72.8089 129.462 70.7725C129.462 68.736 131.114 67.085 133.151 67.085C135.188 67.085 136.839 68.736 136.839 70.7725Z" stroke="#D9D9D9" stroke-width="1.5"/>
<path d="M96.8938 31.2903C96.8938 33.3267 95.2426 34.9778 93.2054 34.9778C91.1683 34.9778 89.5171 33.3267 89.5171 31.2903C89.5171 29.2539 91.1683 27.6028 93.2054 27.6028C95.2426 27.6028 96.8938 29.2539 96.8938 31.2903Z" stroke="#0891B2" stroke-width="1.5"/>
<path d="M115.415 97.3972C115.415 99.4336 113.764 101.085 111.727 101.085C109.69 101.085 108.039 99.4336 108.039 97.3972C108.039 95.3608 109.69 93.7097 111.727 93.7097C113.764 93.7097 115.415 95.3608 115.415 97.3972Z" stroke="#0891B2" stroke-width="1.5"/>
<path d="M47.0762 77.6562C47.0762 79.6927 45.425 81.3438 43.3878 81.3438C41.3507 81.3438 39.6995 79.6927 39.6995 77.6562C39.6995 75.6198 41.3507 73.9688 43.3878 73.9688C45.425 73.9688 47.0762 75.6198 47.0762 77.6562Z" stroke="#0891B2" stroke-width="1.5"/>
<path d="M58.1722 110.959C58.1722 112.995 56.521 114.646 54.4839 114.646C52.4467 114.646 50.7955 112.995 50.7955 110.959C50.7955 108.922 52.4467 107.271 54.4839 107.271C56.521 107.271 58.1722 108.922 58.1722 110.959Z" stroke="#D9D9D9" stroke-width="1.5"/>
<path d="M60.8997 21.3613C60.8997 23.3977 59.2485 25.0488 57.2113 25.0488C55.1741 25.0488 53.5229 23.3977 53.5229 21.3613C53.5229 19.3249 55.1741 17.6738 57.2113 17.6738C59.2485 17.6738 60.8997 19.3249 60.8997 21.3613Z" stroke="#D9D9D9" stroke-width="1.5"/>
</svg>
